<?xml version="1.0" standalone="no"?>
<!DOCTYPE svg PUBLIC "-//W3C//DTD SVG 20010904//EN"
 "http://www.w3.org/TR/2001/REC-SVG-20010904/DTD/svg10.dtd">
<svg version="1.0" xmlns="http://www.w3.org/2000/svg"
 width="700.000000pt" height="700.000000pt" viewBox="0 0 700.000000 700.000000"
 preserveAspectRatio="xMidYMid meet">
<metadata>
Created by potrace 1.14, written by Peter Selinger 2001-2017
</metadata>
<g transform="translate(0.000000,700.000000) scale(0.100000,-0.100000)"
fill="#000000" stroke="none">
<path d="M67 5121 c15 -20 56 -72 91 -116 35 -44 69 -87 76 -95 22 -29 171
-215 181 -227 17 -21 29 -36 97 -124 37 -47 74 -92 83 -99 13 -11 218 -13
1073 -15 932 -1 1063 -3 1104 -17 271 -90 358 -381 169 -568 -51 -50 -123 -93
-176 -104 -16 -3 -41 -9 -55 -11 -14 -3 -366 -6 -783 -6 -439 0 -755 -4 -752
-9 5 -8 213 -271 236 -298 6 -8 74 -93 151 -190 166 -209 195 -245 229 -286
19 -24 256 -322 536 -676 6 -8 27 -33 45 -56 47 -58 74 -91 293 -367 l197
-247 489 0 c390 0 489 3 483 13 -6 9 -122 156 -251 317 -42 52 -664 834 -688
865 -16 21 -63 79 -103 128 -39 50 -70 92 -68 94 2 2 23 6 47 9 293 32 548
145 747 329 136 127 244 297 296 470 28 94 34 145 31 273 -3 147 -6 166 -46
287 -109 327 -395 592 -763 704 -37 12 -80 23 -95 26 -14 3 -55 10 -91 17 -48
9 -428 12 -1438 13 l-1372 2 27 -36z"/>
<path d="M3356 5142 c22 -9 73 -33 114 -55 264 -139 447 -345 534 -601 50
-148 49 -107 51 -1536 l2 -1335 1452 -3 1453 -2 -54 67 c-29 38 -59 75 -65 83
-18 21 -269 338 -301 379 -15 19 -31 39 -37 45 -5 6 -22 27 -36 46 -15 19 -38
47 -52 62 l-25 27 -678 0 c-374 0 -717 0 -764 0 l-85 1 1 1408 c0 774 -1 1412
-3 1418 -3 7 -230 11 -775 11 -699 0 -767 -2 -732 -15z"/>
</g>
</svg>
