<?xml version="1.0" encoding="utf-8"?>
<!-- Generator: Adobe Illustrator 25.4.1, SVG Export Plug-In . SVG Version: 6.00 Build 0)  -->
<svg version="1.1" id="Lag_1" xmlns="http://www.w3.org/2000/svg" xmlns:xlink="http://www.w3.org/1999/xlink" x="0px" y="0px"
	 viewBox="0 0 500 500" style="enable-background:new 0 0 500 500;" xml:space="preserve">
<style type="text/css">
	.st0{fill:#FFFFFF;}
</style>
<polygon points="289.8,131.6 289.8,131.7 289.7,131.6 "/>
<path class="st0" d="M234.4,334.4l40.3,50.7h-70.3l-40.4-50.7L83.4,233h105.2c15.9,0,28.8-11.3,28.8-25.3c0-14-12.9-25.4-28.8-25.4
	H43L2.7,131.6h185.8c37.7,0,69.7,21.1,81.5,50.7c3.2,7.9,4.9,16.5,4.9,25.4c0,8.9-1.7,17.4-5,25.3c-11.3,28.1-40.8,48.7-76.1,50.5
	l0.1,0.2L234.4,334.4z"/>
<path class="st0" d="M289.8,385.1v-181c0-56.9-53.4-72.5-53.4-72.5h53.4l0.1,0.1v-0.1h57.6v202.8h109.5l40.4,50.7H289.8z"/>
<polygon points="289.8,131.6 289.8,131.7 289.7,131.6 "/>
</svg>
